<?xml version="1.0" encoding="UTF-8"?>
<svg id="Layer_1" data-name="Layer 1" xmlns="http://www.w3.org/2000/svg" xmlns:xlink="http://www.w3.org/1999/xlink" viewBox="0 0 391.3 141.73">
  <defs>
    <style>
      .cls-1 {
        fill: #003246;
        filter: url(#drop-shadow-2);
      }

      .cls-2 {
        fill: #d2b589;
      }
    </style>
    <filter id="drop-shadow-2" x="-13.24" y="-12.36" width="422.4" height="172.08" filterUnits="userSpaceOnUse">
      <feOffset dx="2.83" dy="2.83"/>
      <feGaussianBlur result="blur" stdDeviation="5"/>
      <feFlood flood-color="#010101" flood-opacity=".25"/>
      <feComposite in2="blur" operator="in"/>
      <feComposite in="SourceGraphic"/>
    </filter>
  </defs>
  <rect class="cls-1" x="-.97" y="0" width="392.27" height="141.73"/>
  <g>
    <g>
      <path class="cls-2" d="M349.24,36.37h-4.89l-3.36,3.36v14.32h-10.81v-3.86c0-7.62-6.2-13.83-13.83-13.83h-20.13v7.76l.62.25c.45.18.7.29.94.39l1.69.69,2.6-2.65h14.28c4.07,0,7.38,3.31,7.38,7.38v3.86h-35.77v-3.86c0-7.62-6.2-13.83-13.83-13.83h-4.89l-3.36,3.36v14.32h-39.66v-3.86c0-7.62-6.2-13.83-13.83-13.83h-8.09v7.76l1.02.42c.39.16.6.25.9.37l1.32.55,2.61-2.65h2.24c4.07,0,7.38,3.31,7.38,7.38v3.86h-17.87v6.45h63.98v2.22l2.96,1.21,3.37-3.43h51.52v2.22l2.96,1.21,3.37-3.43h10.89v1.32l.06.02v.88l.13.05c1.04.43,1.31.54,2.04.83l.81.33,3.37-3.43h12.37l3.36-3.36v-6.95c0-7.62-6.2-13.83-13.83-13.83h-.03ZM356.62,50.19v3.86h-9.19v-11.24h1.81c4.07,0,7.38,3.31,7.38,7.38h0ZM281.51,50.19v3.86h-9.19v-11.24h1.81c4.07,0,7.38,3.31,7.38,7.38h0Z"/>
      <g>
        <polygon class="cls-2" points="183.04 26.38 183.04 54.63 180.35 57.26 181.68 60.51 184.04 60.51 189.49 60.5 189.49 32.26 192.17 29.62 190.84 26.38 183.04 26.38"/>
        <path class="cls-2" d="M178.68,27.69l-.53-1.31h-7.81v27.67h-11.01v-3.86c0-7.62-6.2-13.83-13.83-13.83h-20.19v7.77l3.25,1.32,2.6-2.65h14.34c4.07,0,7.37,3.31,7.37,7.38v3.86h-40.72c1.4-2.21,2.14-4.75,2.14-7.39v-6.64h-6.45v6.64c0,4.07-3.31,7.38-7.38,7.38h-6.55c1.4-2.21,2.14-4.75,2.14-7.38v-6.64h-6.45v6.64c0,4.07-3.31,7.38-7.38,7.38h-10.94c1.4-2.21,2.14-4.75,2.14-7.38v-6.64h-6.45v6.64c0,4.07-3.31,7.38-7.38,7.38h-17.58c-4.07,0-7.38-3.31-7.38-7.38v-.95l2.47-2.44-1.32-3.25h-7.59v6.64c0,7.62,6.2,13.83,13.82,13.83h17.58c2.96,0,5.78-.92,8.16-2.67v2.67h14.47c2.98,0,5.79-.92,8.18-2.68v2.68h10.07c2.97,0,5.78-.92,8.17-2.68v2.69h44.23v2.22l2.97,1.21,3.37-3.43h14.8l2.77-3.19v-25.04l2.68-2.65-.54-1.3c-.1-.23-.17-.41-.26-.63h0Z"/>
        <rect class="cls-2" x="97.11" y="65.12" width="5.23" height="5.23" transform="translate(-18.68 90.36) rotate(-45)"/>
        <rect class="cls-2" x="47.82" y="65.12" width="5.23" height="5.23" transform="translate(-33.12 55.5) rotate(-45)"/>
        <polygon class="cls-2" points="79.02 66.67 76.38 64.03 72.68 67.73 76.38 71.43 79.02 68.78 81.67 71.43 85.37 67.73 81.67 64.03 79.02 66.67"/>
      </g>
    </g>
    <g>
      <polygon class="cls-2" points="48.53 85.49 49.52 85.33 49.52 83.09 45.42 83.09 39.04 94.43 32.6 83.09 28.2 83.09 28.2 85.35 29.35 85.51 29.35 99.52 28.33 99.92 28.33 102.03 33.35 102.03 33.35 99.9 32.16 99.5 32.16 89.02 37.69 98.62 39.68 98.62 45.16 88.93 45.16 99.51 44.04 99.91 44.04 102.03 49.75 102.03 49.75 99.9 48.53 99.5 48.53 85.49"/>
      <path class="cls-2" d="M63.78,82.75c-5.52,0-9.23,4.08-9.23,10.15,0,5.68,3.71,9.49,9.23,9.49s9.19-4.08,9.19-10.16-3.61-9.49-9.19-9.49ZM69.47,92.34c0,4.38-2.21,7.22-5.62,7.22s-5.75-2.65-5.75-6.75c0-4.4,2.19-7.25,5.59-7.25s5.79,2.66,5.79,6.78h0Z"/>
      <polygon class="cls-2" points="94.36 85.49 95.34 85.33 95.34 83.09 89.93 83.09 89.93 85.33 90.95 85.5 90.95 91.22 82.47 91.22 82.47 85.52 83.66 85.35 83.66 83.09 77.81 83.09 77.81 85.35 79.03 85.52 79.03 99.52 78.02 99.92 78.02 102.03 83.66 102.03 83.66 99.9 82.47 99.5 82.47 93.9 90.95 93.9 90.95 99.52 89.93 99.92 89.93 102.03 95.55 102.03 95.55 99.9 94.36 99.5 94.36 85.49"/>
      <path class="cls-2" d="M110.43,82.79h-2.88l-6.29,16.73-.81.46v2.04h4.75v-2.14l-1.03-.34,1.27-3.21h6.49l1.29,3.21-1.03.34v2.14h5.45v-2.03l-.74-.47-6.49-16.75h0ZM110.93,93.68h-4.47l2.23-5.89,2.25,5.89Z"/>
      <polygon class="cls-2" points="142.95 85.49 143.93 85.33 143.93 83.09 139.83 83.09 133.45 94.43 127.01 83.09 122.62 83.09 122.62 85.35 123.76 85.51 123.76 99.52 122.75 99.92 122.75 102.03 127.76 102.03 127.76 99.9 126.57 99.5 126.57 89.02 132.09 98.62 134.08 98.62 139.57 88.93 139.57 99.51 138.45 99.91 138.45 102.03 144.17 102.03 144.17 99.9 142.95 99.5 142.95 85.49"/>
      <polygon class="cls-2" points="170.31 85.49 171.3 85.33 171.3 83.09 167.19 83.09 160.81 94.43 154.37 83.09 149.98 83.09 149.98 85.35 151.12 85.51 151.12 99.52 150.11 99.92 150.11 102.03 155.12 102.03 155.12 99.9 153.94 99.5 153.94 89.02 159.4 98.51 159.46 98.62 161.44 98.62 166.93 88.93 166.93 99.51 165.82 99.91 165.82 102.03 171.53 102.03 171.53 99.9 170.31 99.5 170.31 85.49"/>
      <path class="cls-2" d="M186.42,82.79h-2.89l-6.28,16.73-.81.46v2.04h4.75v-2.14l-1.03-.34,1.26-3.21h6.49l1.29,3.21-1.02.34v2.14h5.45v-2.03l-.74-.47-6.49-16.75h0ZM186.91,93.68h-4.47l2.23-5.89,2.25,5.89Z"/>
      <path class="cls-2" d="M205.95,83.09h-7.02v2.25l1.02.17v14.02l-1.02.4v2.11h7.09c5.76,0,9.63-3.93,9.63-9.79s-3.8-9.16-9.69-9.16ZM212.13,92.34c0,4.24-2.36,6.98-6.01,6.98h-2.77v-13.53h2.46c3.84,0,6.32,2.57,6.32,6.55h0Z"/>
      <path class="cls-2" d="M237.54,83.19l-.05-.13h-2.88l-6.29,16.45-.81.46v2.04h4.33v-2.07l-.64-.32,1.3-3.29h6.49l1.32,3.29-.63.32v2.07h5.03v-2.03l-.74-.47-6.44-16.34h0ZM237.98,93.68h-4.47l2.23-5.89,2.25,5.89h0Z"/>
      <polygon class="cls-2" points="260.52 99.32 254.42 99.32 254.42 85.49 255.41 85.33 255.41 83.09 250.1 83.09 250.1 85.33 251.01 85.49 251.01 99.54 250.1 99.94 250.1 102.03 263.42 102.03 263.42 98.03 261.37 98.03 260.52 99.32"/>
      <polygon class="cls-2" points="288.79 85.49 289.77 85.33 289.77 83.09 284.16 83.09 284.16 85.35 285.38 85.52 285.38 91.22 276.9 91.22 276.9 85.49 277.89 85.33 277.89 83.09 272.24 83.09 272.24 85.35 273.46 85.52 273.46 99.52 272.44 99.92 272.44 102.03 278.08 102.03 278.08 99.9 276.9 99.5 276.9 93.9 285.38 93.9 285.38 99.52 284.36 99.92 284.36 102.03 289.97 102.03 289.97 99.9 288.79 99.5 288.79 85.49"/>
      <path class="cls-2" d="M304.91,82.91l-.05-.13h-2.88l-6.29,16.73-.81.46v2.04h4.75v-2.14l-1.03-.34,1.26-3.21h6.49l1.32,3.29-.64.32v2.07h5.03v-2.03l-.74-.47-6.44-16.62h.01ZM305.36,93.68h-4.47l2.22-5.89,2.25,5.89h0Z"/>
      <path class="cls-2" d="M328.61,92.03c1.34-.92,2.08-2.3,2.08-3.9,0-3.16-2.56-5.04-6.83-5.04h-6.49v2.25l1.02.17v14.02l-1.02.4v2.11h7.19c4.65,0,7.53-2.09,7.53-5.44,0-2.21-1.17-3.75-3.47-4.56h0ZM323.96,91.12h-2.17v-5.33h2.07c2.16,0,3.36.91,3.36,2.56s-1.31,2.77-3.26,2.77ZM328.55,96.59c0,1.71-1.6,2.73-4.29,2.73h-2.46v-5.5h2.3c3,0,4.45.9,4.45,2.77Z"/>
      <polygon class="cls-2" points="340.99 85.49 341.98 85.33 341.98 83.09 336.33 83.09 336.33 85.35 337.54 85.52 337.54 99.52 336.53 99.92 336.53 102.03 342.21 102.03 342.21 99.9 340.99 99.5 340.99 85.49"/>
      <path class="cls-2" d="M359.6,92.03c1.34-.92,2.08-2.3,2.08-3.9,0-3.16-2.56-5.04-6.83-5.04h-6.49v2.25l1.02.17v14.02l-1.02.4v2.11h7.19c4.65,0,7.53-2.09,7.53-5.44,0-2.21-1.17-3.75-3.47-4.56h0ZM359.54,96.59c0,1.71-1.6,2.73-4.29,2.73h-2.46v-5.5h2.3c3,0,4.46.9,4.46,2.77ZM352.78,91.12v-5.33h2.07c2.17,0,3.36.91,3.36,2.56s-1.31,2.77-3.26,2.77h-2.16Z"/>
    </g>
  </g>
</svg>