<?xml version="1.0" encoding="UTF-8"?>
<svg id="Layer_1" data-name="Layer 1" xmlns="http://www.w3.org/2000/svg" xmlns:xlink="http://www.w3.org/1999/xlink" viewBox="0 0 195.13 141.73">
  <defs>
    <style>
      .cls-1 {
        fill: #003246;
        filter: url(#drop-shadow-1);
      }

      .cls-2 {
        fill: #d2b589;
      }
    </style>
    <filter id="drop-shadow-1" x="-12.18" y="-12.36" width="225.36" height="172.08" filterUnits="userSpaceOnUse">
      <feOffset dx="2.83" dy="2.83"/>
      <feGaussianBlur result="blur" stdDeviation="5"/>
      <feFlood flood-color="#010101" flood-opacity=".25"/>
      <feComposite in2="blur" operator="in"/>
      <feComposite in="SourceGraphic"/>
    </filter>
  </defs>
  <rect class="cls-1" y="0" width="195.13" height="141.73"/>
  <g>
    <g>
      <path class="cls-2" d="M152.38,33.11h-3.76l-2.58,2.58v11h-8.3v-2.96c0-5.85-4.76-10.61-10.61-10.61h-15.45v5.96l.48.2c.34.14.54.22.72.3l1.29.53,2-2.03h10.97c3.12,0,5.66,2.54,5.66,5.66v2.96h-27.46v-2.96c0-5.85-4.76-10.61-10.61-10.61h-3.76l-2.58,2.58v11h-30.44v-2.96c0-5.85-4.76-10.61-10.61-10.61h-6.21v5.96l.78.32c.3.12.46.19.69.28l1.02.42,2-2.03h1.72c3.12,0,5.66,2.54,5.66,5.66v2.96h-13.72v4.95h49.11v1.7l2.27.93,2.59-2.63h39.55v1.7l2.27.93,2.59-2.63h8.36v1.01l.04.02v.67l.1.04c.8.33,1.01.41,1.56.64l.62.25,2.59-2.63h9.5l2.58-2.58v-5.33c0-5.85-4.76-10.61-10.61-10.61ZM158.05,43.73v2.96h-7.05v-8.63h1.39c3.12,0,5.66,2.54,5.66,5.66ZM100.39,43.73v2.96h-7.05v-8.63h1.39c3.12,0,5.66,2.54,5.66,5.66Z"/>
      <g>
        <polygon class="cls-2" points="158.22 58.33 158.22 80.01 156.16 82.03 157.18 84.53 158.99 84.53 163.17 84.52 163.17 62.84 165.23 60.81 164.21 58.33 158.22 58.33"/>
        <path class="cls-2" d="M154.88,59.33l-.41-1h-5.99v21.24h-8.45v-2.96c0-5.85-4.76-10.61-10.61-10.61h-15.5v5.96l2.49,1.02,2-2.03h11.01c3.12,0,5.66,2.54,5.66,5.66v2.96h-31.26c1.08-1.7,1.65-3.65,1.65-5.67v-5.09h-4.95v5.09c0,3.12-2.54,5.66-5.66,5.66h-5.03c1.08-1.7,1.64-3.65,1.64-5.66v-5.09h-4.95v5.09c0,3.12-2.54,5.66-5.66,5.66h-8.4c1.08-1.7,1.64-3.65,1.64-5.66v-5.09h-4.95v5.09c0,3.12-2.54,5.66-5.66,5.66h-13.49c-3.12,0-5.66-2.54-5.66-5.66v-.73l1.9-1.87-1.02-2.49h-5.83v5.09c0,5.85,4.76,10.61,10.61,10.61h13.49c2.27,0,4.43-.71,6.26-2.05v2.05h11.11c2.28,0,4.45-.71,6.27-2.06v2.06h7.73c2.28,0,4.44-.71,6.27-2.06v2.07h33.95v1.7s2.28.93,2.28.93l2.59-2.63h11.36l2.13-2.45v-19.23l2.06-2.03-.41-1c-.07-.18-.13-.31-.2-.48Z"/>
        <rect class="cls-2" x="92.26" y="88.06" width="4.02" height="4.02" transform="translate(-36.07 93.04) rotate(-45)"/>
        <rect class="cls-2" x="54.43" y="88.06" width="4.02" height="4.02" transform="translate(-47.16 66.3) rotate(-45)"/>
        <polygon class="cls-2" points="78.38 89.26 76.35 87.22 73.51 90.07 76.35 92.91 78.38 90.87 80.41 92.91 83.25 90.07 80.41 87.22 78.38 89.26"/>
      </g>
    </g>
    <g>
      <polygon class="cls-2" points="46.88 102.37 47.25 102.31 47.25 101.48 45.73 101.48 43.37 105.67 40.99 101.48 39.37 101.48 39.37 102.32 39.79 102.38 39.79 107.56 39.42 107.71 39.42 108.49 41.27 108.49 41.27 107.7 40.83 107.55 40.83 103.68 42.87 107.22 43.61 107.22 45.64 103.64 45.64 107.55 45.22 107.7 45.22 108.49 47.33 108.49 47.33 107.7 46.88 107.55 46.88 102.37"/>
      <path class="cls-2" d="M52.52,101.36c-2.04,0-3.41,1.51-3.41,3.75,0,2.1,1.37,3.51,3.41,3.51s3.4-1.51,3.4-3.75-1.33-3.51-3.4-3.51ZM54.62,104.9c0,1.62-.82,2.67-2.08,2.67s-2.13-.98-2.13-2.5c0-1.63.81-2.68,2.07-2.68s2.14.98,2.14,2.51Z"/>
      <polygon class="cls-2" points="63.83 102.37 64.19 102.31 64.19 101.48 62.19 101.48 62.19 102.31 62.57 102.37 62.57 104.49 59.43 104.49 59.43 102.38 59.87 102.32 59.87 101.48 57.71 101.48 57.71 102.32 58.16 102.38 58.16 107.56 57.78 107.71 57.78 108.49 59.87 108.49 59.87 107.7 59.43 107.55 59.43 105.48 62.57 105.48 62.57 107.56 62.19 107.71 62.19 108.49 64.26 108.49 64.26 107.7 63.83 107.55 63.83 102.37"/>
      <path class="cls-2" d="M69.77,101.37h-1.07l-2.32,6.19-.3.17v.76h1.76v-.79l-.38-.12.47-1.18h2.4l.48,1.19-.38.12v.79h2.02v-.75l-.27-.17-2.4-6.19ZM69.95,105.4h-1.65l.82-2.18.83,2.18Z"/>
      <polygon class="cls-2" points="81.79 102.37 82.15 102.31 82.15 101.48 80.64 101.48 78.28 105.67 75.9 101.48 74.27 101.48 74.27 102.32 74.7 102.38 74.7 107.56 74.32 107.71 74.32 108.49 76.17 108.49 76.17 107.7 75.73 107.55 75.73 103.68 77.78 107.22 78.51 107.22 80.54 103.64 80.54 107.55 80.13 107.7 80.13 108.49 82.24 108.49 82.24 107.7 81.79 107.55 81.79 102.37"/>
      <polygon class="cls-2" points="91.9 102.37 92.27 102.31 92.27 101.48 90.75 101.48 88.39 105.67 86.01 101.48 84.39 101.48 84.39 102.32 84.81 102.38 84.81 107.56 84.44 107.71 84.44 108.49 86.29 108.49 86.29 107.7 85.85 107.55 85.85 103.68 87.87 107.18 87.89 107.22 88.63 107.22 90.66 103.64 90.66 107.55 90.24 107.7 90.24 108.49 92.36 108.49 92.36 107.7 91.9 107.55 91.9 102.37"/>
      <path class="cls-2" d="M97.86,101.37h-1.07l-2.32,6.19-.3.17v.76h1.76v-.79l-.38-.12.47-1.18h2.4l.48,1.19-.38.12v.79h2.02v-.75l-.27-.17-2.4-6.19ZM98.04,105.4h-1.65l.82-2.18.83,2.18Z"/>
      <path class="cls-2" d="M105.08,101.48h-2.6v.83l.38.06v5.18l-.38.15v.78h2.62c2.13,0,3.56-1.45,3.56-3.62s-1.41-3.39-3.58-3.39ZM107.37,104.9c0,1.57-.87,2.58-2.22,2.58h-1.02v-5h.91c1.42,0,2.33.95,2.33,2.42Z"/>
      <path class="cls-2" d="M116.76,101.52l-.02-.05h-1.07l-2.32,6.08-.3.17v.76h1.6v-.77l-.23-.12.48-1.22h2.4l.49,1.22-.23.12v.77h1.86v-.75l-.27-.17-2.38-6.04ZM116.92,105.4h-1.65l.82-2.18.83,2.18Z"/>
      <polygon class="cls-2" points="125.25 107.49 123 107.49 123 102.37 123.37 102.31 123.37 101.48 121.4 101.48 121.4 102.31 121.74 102.37 121.74 107.56 121.4 107.71 121.4 108.49 126.33 108.49 126.33 107.01 125.57 107.01 125.25 107.49"/>
      <polygon class="cls-2" points="135.71 102.37 136.07 102.31 136.07 101.48 134 101.48 134 102.32 134.45 102.38 134.45 104.49 131.31 104.49 131.31 102.37 131.68 102.31 131.68 101.48 129.59 101.48 129.59 102.32 130.04 102.38 130.04 107.56 129.66 107.71 129.66 108.49 131.75 108.49 131.75 107.7 131.31 107.55 131.31 105.48 134.45 105.48 134.45 107.56 134.07 107.71 134.07 108.49 136.14 108.49 136.14 107.7 135.71 107.55 135.71 102.37"/>
      <path class="cls-2" d="M141.67,101.42l-.02-.05h-1.07l-2.32,6.19-.3.17v.76h1.76v-.79l-.38-.12.47-1.18h2.4l.49,1.22-.23.12v.77h1.86v-.75l-.27-.17-2.38-6.14ZM141.83,105.4h-1.65l.82-2.18.83,2.18Z"/>
      <path class="cls-2" d="M150.43,104.79c.5-.34.77-.85.77-1.44,0-1.17-.94-1.86-2.53-1.86h-2.4v.83l.38.06v5.18l-.38.15v.78h2.66c1.72,0,2.78-.77,2.78-2.01,0-.82-.43-1.39-1.28-1.69ZM148.71,104.45h-.8v-1.97h.76c.8,0,1.24.34,1.24.95s-.48,1.02-1.2,1.02ZM150.41,106.48c0,.63-.59,1.01-1.59,1.01h-.91v-2.03h.85c1.11,0,1.65.33,1.65,1.02Z"/>
      <polygon class="cls-2" points="155.01 102.37 155.37 102.31 155.37 101.48 153.28 101.48 153.28 102.32 153.73 102.38 153.73 107.56 153.36 107.71 153.36 108.49 155.46 108.49 155.46 107.7 155.01 107.55 155.01 102.37"/>
      <path class="cls-2" d="M161.89,104.79c.5-.34.77-.85.77-1.44,0-1.17-.94-1.86-2.53-1.86h-2.4v.83l.38.06v5.18l-.38.15v.78h2.66c1.72,0,2.78-.77,2.78-2.01,0-.82-.43-1.39-1.29-1.69ZM161.86,106.48c0,.63-.59,1.01-1.59,1.01h-.91v-2.03h.85c1.11,0,1.65.33,1.65,1.02ZM159.37,104.45v-1.97h.76c.8,0,1.24.34,1.24.95s-.48,1.02-1.21,1.02h-.8Z"/>
    </g>
  </g>
</svg>